<?xml version="1.0" encoding="UTF-8" standalone="no"?>
<svg
   xmlns:dc="http://purl.org/dc/elements/1.1/"
   xmlns:cc="http://creativecommons.org/ns#"
   xmlns:rdf="http://www.w3.org/1999/02/22-rdf-syntax-ns#"
   xmlns:svg="http://www.w3.org/2000/svg"
   xmlns="http://www.w3.org/2000/svg"
   xmlns:sodipodi="http://sodipodi.sourceforge.net/DTD/sodipodi-0.dtd"
   xmlns:inkscape="http://www.inkscape.org/namespaces/inkscape"
   viewBox="0 0 19.12 18.49"
   version="1.1"
   id="svg16"
   sodipodi:docname="blinded2.svg"
   inkscape:version="1.0.1 (3bc2e813f5, 2020-09-07)">
  <metadata
     id="metadata20">
    <rdf:RDF>
      <cc:Work
         rdf:about="">
        <dc:format>image/svg+xml</dc:format>
        <dc:type
           rdf:resource="http://purl.org/dc/dcmitype/StillImage" />
        <dc:title>Asset 47</dc:title>
      </cc:Work>
    </rdf:RDF>
  </metadata>
  <sodipodi:namedview
     pagecolor="#ffffff"
     bordercolor="#666666"
     borderopacity="1"
     objecttolerance="10"
     gridtolerance="10"
     guidetolerance="10"
     inkscape:pageopacity="0"
     inkscape:pageshadow="2"
     inkscape:window-width="1920"
     inkscape:window-height="980"
     id="namedview18"
     showgrid="false"
     inkscape:zoom="44.835047"
     inkscape:cx="10.898239"
     inkscape:cy="9.2449999"
     inkscape:window-x="0"
     inkscape:window-y="0"
     inkscape:window-maximized="1"
     inkscape:current-layer="Layer_1-2" />
  <defs
     id="defs4">
    <style
       id="style2">.cls-1{fill:#242528;}.cls-2{fill:none;stroke:#000;stroke-miterlimit:10;stroke-width:2px;}</style>
  </defs>
  <title
     id="title6">Asset 47</title>
  <g
     id="Layer_2"
     data-name="Layer 2"
     style="display:inline;fill:#999999">
    <g
       id="Layer_1-2"
       data-name="Layer 1"
       style="fill:#000000">
      <path
         class="cls-1"
         d="M 9.55,3.05 A 10.27,10.27 0 0 0 0,9.47 10.33,10.33 0 0 0 19.12,9.47 10.29,10.29 0 0 0 9.55,3.05 Z m 0,11.3 a 8.67,8.67 0 0 1 -7.84,-4.88 8.75,8.75 0 0 1 15.69,0 8.71,8.71 0 0 1 -7.85,4.88 z"
         id="path8"
         style="fill:#000000" />
      <line
         class="cls-2"
         x1="18.17"
         y1="0.70999998"
         x2="1.17"
         y2="17.790001"
         id="line10"
         style="fill:#808080;stroke:#808080" />
      <path
         class="cls-1"
         d="M 8,10.56 A 1,1 0 0 1 7.89,10.72 2.4,2.4 0 0 1 7.41,11.16 1.16,1.16 0 0 1 7.17,11.31 3.4,3.4 0 0 0 12.36,7 C 11,8.3 9.34,9.25 8,10.56 Z"
         id="path12"
         style="fill:#000000" />
    </g>
  </g>
</svg>
