<?xml version="1.0" encoding="UTF-8" standalone="no"?>
<svg
   xmlns:dc="http://purl.org/dc/elements/1.1/"
   xmlns:cc="http://creativecommons.org/ns#"
   xmlns:rdf="http://www.w3.org/1999/02/22-rdf-syntax-ns#"
   xmlns:svg="http://www.w3.org/2000/svg"
   xmlns="http://www.w3.org/2000/svg"
   xmlns:sodipodi="http://sodipodi.sourceforge.net/DTD/sodipodi-0.dtd"
   xmlns:inkscape="http://www.inkscape.org/namespaces/inkscape"
   version="1.1"
   x="0px"
   y="0px"
   viewBox="0 0 100 125"
   enable-background="new 0 0 100 100"
   xml:space="preserve"
   id="svg14"
   sodipodi:docname="bonus.svg"
   inkscape:version="1.0.1 (3bc2e813f5, 2020-09-07)"><metadata
     id="metadata20"><rdf:RDF><cc:Work
         rdf:about=""><dc:format>image/svg+xml</dc:format><dc:type
           rdf:resource="http://purl.org/dc/dcmitype/StillImage" /></cc:Work></rdf:RDF></metadata><defs
     id="defs18" /><sodipodi:namedview
     pagecolor="#ffffff"
     bordercolor="#666666"
     borderopacity="1"
     objecttolerance="10"
     gridtolerance="10"
     guidetolerance="10"
     inkscape:pageopacity="0"
     inkscape:pageshadow="2"
     inkscape:window-width="1920"
     inkscape:window-height="980"
     id="namedview16"
     showgrid="false"
     inkscape:zoom="9.3790643"
     inkscape:cx="38.095703"
     inkscape:cy="76.653884"
     inkscape:window-x="0"
     inkscape:window-y="0"
     inkscape:window-maximized="1"
     inkscape:current-layer="svg14" /><g
     id="g8"><path
       d="M70.573,32.23c2.138-1.53,4.102-3.258,5.678-5.156C84.91,16.651,81.7,7.733,76.319,3.264   c-2.596-2.155-11.911-8.171-22.796,4.932C52.297,9.673,51.096,11.533,50,13.6c-1.096-2.067-2.297-3.927-3.524-5.405   C35.591-4.909,26.276,1.108,23.68,3.264c-5.38,4.469-8.59,13.386,0.068,23.81c0,0,0,0,0,0c1.577,1.898,3.541,3.626,5.679,5.156H0   V56h5h41V32.23h8V56h41h5V32.23H70.573z M31.44,20.684L31.44,20.684c-5.341-6.43-2.353-8.913-1.371-9.728   c1.009-0.838,3.373-2.8,8.714,3.629c3.489,4.201,5.408,10.446,6.017,14.285C40.927,27.644,34.789,24.716,31.44,20.684z    M68.559,20.684c-3.348,4.031-9.486,6.96-13.359,8.186c0.609-3.839,2.528-10.085,6.017-14.285c3.005-3.616,5.066-4.578,6.476-4.578   c1.097,0,1.797,0.582,2.238,0.949C70.912,11.772,73.9,14.254,68.559,20.684C68.559,20.684,68.559,20.684,68.559,20.684z"
       id="path2" /><rect
       x="5"
       y="64"
       width="41"
       height="36"
       id="rect4" /><rect
       x="54"
       y="64"
       width="41"
       height="36"
       id="rect6" /></g></svg>
