<?xml version="1.0" encoding="UTF-8" standalone="no"?>
<svg
   xmlns:dc="http://purl.org/dc/elements/1.1/"
   xmlns:cc="http://creativecommons.org/ns#"
   xmlns:rdf="http://www.w3.org/1999/02/22-rdf-syntax-ns#"
   xmlns:svg="http://www.w3.org/2000/svg"
   xmlns="http://www.w3.org/2000/svg"
   xmlns:sodipodi="http://sodipodi.sourceforge.net/DTD/sodipodi-0.dtd"
   xmlns:inkscape="http://www.inkscape.org/namespaces/inkscape"
   version="1.1"
   x="0px"
   y="0px"
   viewBox="0 0 100 125"
   style="enable-background:new 0 0 100 100;"
   xml:space="preserve"
   id="svg14"
   sodipodi:docname="consumed.svg"
   inkscape:version="1.0.1 (3bc2e813f5, 2020-09-07)"><metadata
     id="metadata20"><rdf:RDF><cc:Work
         rdf:about=""><dc:format>image/svg+xml</dc:format><dc:type
           rdf:resource="http://purl.org/dc/dcmitype/StillImage" /></cc:Work></rdf:RDF></metadata><defs
     id="defs18" /><sodipodi:namedview
     pagecolor="#ffffff"
     bordercolor="#666666"
     borderopacity="1"
     objecttolerance="10"
     gridtolerance="10"
     guidetolerance="10"
     inkscape:pageopacity="0"
     inkscape:pageshadow="2"
     inkscape:window-width="1920"
     inkscape:window-height="980"
     id="namedview16"
     showgrid="false"
     inkscape:zoom="6.632"
     inkscape:cx="50"
     inkscape:cy="62.5"
     inkscape:window-x="0"
     inkscape:window-y="0"
     inkscape:window-maximized="1"
     inkscape:current-layer="svg14" /><path
     d="M88.6,17.4c0-1.6-1.3-3-3-3h-3H64.9V8.5c0-3.3-2.7-5.9-5.9-5.9H41.1c-3.3,0-5.9,2.7-5.9,5.9v5.9H17.4h-3c-1.6,0-3,1.3-3,3v0  c0,1.6,1.3,3,3,3h3v68.3c0,4.9,4,8.9,8.9,8.9h47.5c4.9,0,8.9-4,8.9-8.9V20.4h3C87.3,20.4,88.6,19,88.6,17.4L88.6,17.4z M41.1,8.5H59  v5.9H41.1V8.5z M76.8,88.6c0,1.6-1.3,3-3,3H26.3c-1.6,0-3-1.3-3-3V20.4h53.4V88.6z"
     id="path2" /><path
     d="M35.1,32.2L35.1,32.2c1.6,0,3,1.3,3,3v44.4c0,1.6-1.3,3-3,3h0c-1.6,0-3-1.3-3-3V35.2C32.2,33.6,33.5,32.2,35.1,32.2z"
     id="path4" /><path
     d="M50,32.2L50,32.2c1.6,0,3,1.3,3,3v44.4c0,1.6-1.3,3-3,3h0c-1.6,0-3-1.3-3-3V35.2C47.1,33.6,48.4,32.2,50,32.2z"
     id="path6" /><path
     d="M65,32.2L65,32.2c1.6,0,3,1.3,3,3v44.4c0,1.6-1.3,3-3,3h0c-1.6,0-3-1.3-3-3V35.2C62,33.6,63.3,32.2,65,32.2z"
     id="path8" /></svg>
