<?xml version="1.0" encoding="UTF-8" standalone="no"?>
<svg
   xmlns:dc="http://purl.org/dc/elements/1.1/"
   xmlns:cc="http://creativecommons.org/ns#"
   xmlns:rdf="http://www.w3.org/1999/02/22-rdf-syntax-ns#"
   xmlns:svg="http://www.w3.org/2000/svg"
   xmlns="http://www.w3.org/2000/svg"
   xmlns:sodipodi="http://sodipodi.sourceforge.net/DTD/sodipodi-0.dtd"
   xmlns:inkscape="http://www.inkscape.org/namespaces/inkscape"
   viewBox="0 0 19 17.22"
   version="1.1"
   id="svg14"
   sodipodi:docname="prone.svg"
   inkscape:version="1.0.1 (3bc2e813f5, 2020-09-07)">
  <metadata
     id="metadata18">
    <rdf:RDF>
      <cc:Work
         rdf:about="">
        <dc:format>image/svg+xml</dc:format>
        <dc:type
           rdf:resource="http://purl.org/dc/dcmitype/StillImage" />
      </cc:Work>
    </rdf:RDF>
  </metadata>
  <sodipodi:namedview
     pagecolor="#ffffff"
     bordercolor="#666666"
     borderopacity="1"
     objecttolerance="10"
     gridtolerance="10"
     guidetolerance="10"
     inkscape:pageopacity="0"
     inkscape:pageshadow="2"
     inkscape:window-width="747"
     inkscape:window-height="480"
     id="namedview16"
     showgrid="false"
     inkscape:zoom="48.141698"
     inkscape:cx="9.5"
     inkscape:cy="8.6099997"
     inkscape:window-x="0"
     inkscape:window-y="0"
     inkscape:window-maximized="0"
     inkscape:current-layer="svg14" />
  <defs
     id="defs4">
    <style
       id="style2">.cls-1{fill:#252525;}</style>
  </defs>
  <title
     id="title6">Asset 42</title>
  <g
     id="Layer_2"
     data-name="Layer 2"
     style="fill:#000000">
    <g
       id="Layer_1-2"
       data-name="Layer 1"
       style="fill:#000000">
      <path
         class="cls-1"
         d="M13.72,15.63c-1.05.86-2,1.51-3.77,0s-3-3.71-4.52-3.77-5.21.75-5.4,0,.57-1.51,1.51-1.51S4.61,11,6.18,9.6s2.76-2.07,3-3.77S8.57.94,9.19.31s1.32-.25,1.51.75,1,5.27,0,7c0,0-.19,3.14.75,3.77,0,0,1.44-2.39,3-3S19.18,8,19,8.84s-.13,1.44-1.51,1.51-3.08.38-4.52,3a6.44,6.44,0,0,1,3-.75,4.28,4.28,0,0,1,3,3c.06.94-.63,1.88-1.51,1.51S16.79,13.11,13.72,15.63Z"
         id="path8"
         style="fill:#000000" />
      <ellipse
         class="cls-1"
         cx="5.72"
         cy="6.7"
         rx="1.88"
         ry="2.49"
         transform="translate(-2.03 2.51) rotate(-21.1)"
         id="ellipse10"
         style="fill:#000000" />
    </g>
  </g>
</svg>
