<?xml version="1.0" encoding="UTF-8" standalone="no"?>
<svg
   xmlns:dc="http://purl.org/dc/elements/1.1/"
   xmlns:cc="http://creativecommons.org/ns#"
   xmlns:rdf="http://www.w3.org/1999/02/22-rdf-syntax-ns#"
   xmlns:svg="http://www.w3.org/2000/svg"
   xmlns="http://www.w3.org/2000/svg"
   xmlns:sodipodi="http://sodipodi.sourceforge.net/DTD/sodipodi-0.dtd"
   xmlns:inkscape="http://www.inkscape.org/namespaces/inkscape"
   viewBox="0 0 18.82 21.16"
   version="1.1"
   id="svg20"
   sodipodi:docname="restrained.svg"
   inkscape:version="1.0.1 (3bc2e813f5, 2020-09-07)">
  <metadata
     id="metadata24">
    <rdf:RDF>
      <cc:Work
         rdf:about="">
        <dc:format>image/svg+xml</dc:format>
        <dc:type
           rdf:resource="http://purl.org/dc/dcmitype/StillImage" />
      </cc:Work>
    </rdf:RDF>
  </metadata>
  <sodipodi:namedview
     pagecolor="#ffffff"
     bordercolor="#666666"
     borderopacity="1"
     objecttolerance="10"
     gridtolerance="10"
     guidetolerance="10"
     inkscape:pageopacity="0"
     inkscape:pageshadow="2"
     inkscape:window-width="1920"
     inkscape:window-height="980"
     id="namedview22"
     showgrid="false"
     inkscape:zoom="11.060208"
     inkscape:cx="12.220099"
     inkscape:cy="19.568901"
     inkscape:window-x="0"
     inkscape:window-y="0"
     inkscape:window-maximized="1"
     inkscape:current-layer="Layer_1-2" />
  <defs
     id="defs4">
    <style
       id="style2">.cls-1{font-size:8px;fill:#242528;font-family:RobotoCondensed-Bold, Roboto Condensed;font-weight:700;}.cls-2{fill:#252525;}</style>
  </defs>
  <title
     id="title6">Asset 48</title>
  <g
     id="Layer_2"
     data-name="Layer 2">
    <g
       id="Layer_1-2"
       data-name="Layer 1">
      <path
         class="cls-2"
         d="M18.75,10.61c-1.5,1.41-2.84,3.08-4.56,4.13-1.05.64-2.68.34-4,.46A7.14,7.14,0,0,1,13.8,7.39c.32-.15,1-.18,1.1,0a1.67,1.67,0,0,1,.21,1.33,14,14,0,0,1-1.61,2.17c2.2-.87,2.5-1.69,3-3.76.46-1.82,0-4.66.71-4.95.83,0,1.69-.33,1.57,1.26C18.59,6.18,18.75,7.85,18.75,10.61Z"
         id="path10"
         style="fill:#000000" />
      <path
         class="cls-2"
         d="M.07,10.61c1.5,1.41,2.84,3.08,4.56,4.13,1.05.64,2.68.34,4,.46A7.14,7.14,0,0,0,5,7.39c-.32-.15-1-.18-1.1,0C3.69,7.74,4.84,8.8,5,9.16c.28.62,0,1.12.32,1.73-3-1.23-2.5-1.69-3-3.76-.46-1.82,0-4.66-.71-4.95C.75,2.2-.11,1.84,0,3.43.23,6.18.07,7.85.07,10.61Z"
         id="path12"
         style="fill:#000000" />
      <path
         class="cls-2"
         d="M2.51,21.16c-.71-1.14-.56-2,.93-2q5.6-.07,11.19,0c1.49,0,1.64.83.93,2Z"
         id="path14"
         style="fill:#000000" />
      <path
         class="cls-2"
         d="M9.22,18.12c-1.92,0-3.85.06-5.76,0-.46,0-.89-.54-1.34-.82.45-.37.89-1,1.34-1.06,3.76-.08,7.52-.07,11.28,0,.41,0,.81.61,1.21.94-.41.32-.8.91-1.22.93C12.9,18.18,11.06,18.12,9.22,18.12Z"
         id="path16"
         style="fill:#000000" />
    </g>
  </g>
</svg>
