<?xml version="1.0" encoding="UTF-8" standalone="no"?>
<svg
   xmlns:dc="http://purl.org/dc/elements/1.1/"
   xmlns:cc="http://creativecommons.org/ns#"
   xmlns:rdf="http://www.w3.org/1999/02/22-rdf-syntax-ns#"
   xmlns:svg="http://www.w3.org/2000/svg"
   xmlns="http://www.w3.org/2000/svg"
   xmlns:sodipodi="http://sodipodi.sourceforge.net/DTD/sodipodi-0.dtd"
   xmlns:inkscape="http://www.inkscape.org/namespaces/inkscape"
   viewBox="0 0 18.06 16.86"
   version="1.1"
   id="svg20"
   sodipodi:docname="thunder.svg"
   inkscape:version="1.0.1 (3bc2e813f5, 2020-09-07)">
  <metadata
     id="metadata24">
    <rdf:RDF>
      <cc:Work
         rdf:about="">
        <dc:format>image/svg+xml</dc:format>
        <dc:type
           rdf:resource="http://purl.org/dc/dcmitype/StillImage" />
      </cc:Work>
    </rdf:RDF>
  </metadata>
  <sodipodi:namedview
     pagecolor="#ffffff"
     bordercolor="#666666"
     borderopacity="1"
     objecttolerance="10"
     gridtolerance="10"
     guidetolerance="10"
     inkscape:pageopacity="0"
     inkscape:pageshadow="2"
     inkscape:window-width="1920"
     inkscape:window-height="980"
     id="namedview22"
     showgrid="false"
     inkscape:zoom="49.16963"
     inkscape:cx="9.0299997"
     inkscape:cy="8.4300003"
     inkscape:window-x="0"
     inkscape:window-y="0"
     inkscape:window-maximized="1"
     inkscape:current-layer="svg20" />
  <defs
     id="defs4">
    <style
       id="style2">.cls-1{fill:#252525;}</style>
  </defs>
  <title
     id="title6">Asset 37</title>
  <g
     id="Layer_2"
     data-name="Layer 2"
     style="fill:#000000">
    <g
       id="Layer_1-2"
       data-name="Layer 1"
       style="fill:#000000">
      <path
         class="cls-1"
         d="M17.05,6.61v.63L17,7.56a2.9,2.9,0,0,1-3.27,2.25c-.29,0-.57-.15-.87-.22a2.82,2.82,0,0,1-4.39.6h0l-.07.07a3.54,3.54,0,0,1-1.62.9c-.26.06-.52.09-.78.14h-.3l-.09,0A3.66,3.66,0,0,1,2.9,9.89a.21.21,0,0,0-.16-.06A2.24,2.24,0,0,1,.29,8.27c0-.12-.07-.24-.1-.36s0-.38,0-.57a.34.34,0,0,0,0-.07A2.2,2.2,0,0,1,1.94,5.44l.5-.08A2.83,2.83,0,0,1,6.21,3.1a4.42,4.42,0,0,1,8.62,1l.11,0a2.88,2.88,0,0,1,2,2.08C17,6.35,17,6.48,17.05,6.61Z"
         id="path8"
         style="fill:#000000" />
      <polygon
         class="cls-1"
         points="1.52 11.25 0 15.98 2.65 12.14 1.52 11.25"
         id="polygon10"
         style="fill:#000000" />
      <polygon
         class="cls-1"
         points="5.45 12.62 5.04 16.86 7.16 12.62 5.45 12.62"
         id="polygon12"
         style="fill:#000000" />
      <polygon
         class="cls-1"
         points="10.79 12.43 11.67 16.65 12.1 12.14 10.79 12.43"
         id="polygon14"
         style="fill:#000000" />
      <polygon
         class="cls-1"
         points="14.58 11.44 18.06 16.86 15.82 10.91 14.58 11.44"
         id="polygon16"
         style="fill:#000000" />
    </g>
  </g>
</svg>
